<?xml version="1.0" standalone="no"?>
<!DOCTYPE svg PUBLIC "-//W3C//DTD SVG 20010904//EN"
 "http://www.w3.org/TR/2001/REC-SVG-20010904/DTD/svg10.dtd">
<svg version="1.0" xmlns="http://www.w3.org/2000/svg"
 width="76.000000pt" height="78.000000pt" viewBox="0 0 76.000000 78.000000"
 preserveAspectRatio="xMidYMid meet">
<metadata>
Created by potrace 1.10, written by Peter Selinger 2001-2011
</metadata>
<g transform="translate(0.000000,78.000000) scale(0.100000,-0.100000)"
fill="#0d7cf2" stroke="none">
<path d="M260 708 c-70 -20 -69 -31 16 -164 30 -46 37 -53 54 -44 22 12 38 76
43 175 l2 40 -40 2 c-22 1 -56 -3 -75 -9z m87 -65 c-4 -3 -7 0 -7 7 0 7 3 10
7 7 3 -4 3 -10 0 -14z m-29 -48 c-3 -3 -9 2 -12 12 -6 14 -5 15 5 6 7 -7 10
-15 7 -18z"/>
<path d="M518 591 c-1 -5 -29 -37 -60 -69 -57 -59 -70 -88 -45 -98 17 -6 198
23 209 34 10 10 -15 74 -44 115 -19 26 -53 37 -60 18z m9 -38 c-4 -3 -7 0 -7
7 0 7 3 10 7 7 3 -4 3 -10 0 -14z m50 -20 c-4 -3 -7 0 -7 7 0 7 3 10 7 7 3 -4
3 -10 0 -14z m10 -40 c-4 -3 -7 0 -7 7 0 7 3 10 7 7 3 -4 3 -10 0 -14z m-137
-17 c0 -3 -5 -8 -12 -12 -7 -4 -8 -3 -4 4 7 12 16 16 16 8z m-9 -34 c-7 -2
-18 1 -23 6 -8 8 -4 9 13 5 13 -4 18 -8 10 -11z"/>
<path d="M46 493 c-34 -101 -16 -135 61 -114 21 6 41 11 45 12 92 23 103 27
106 46 2 16 -13 28 -83 62 -48 22 -93 41 -100 41 -7 0 -20 -21 -29 -47z m71
10 c-4 -3 -10 -3 -14 0 -3 4 0 7 7 7 7 0 10 -3 7 -7z m60 -60 c-4 -3 -10 -3
-14 0 -3 4 0 7 7 7 7 0 10 -3 7 -7z m-13 -21 c2 -4 -5 -9 -17 -9 -17 -2 -19 0
-7 7 18 12 18 12 24 2z"/>
<path d="M306 434 c-21 -21 -20 -47 2 -67 24 -22 45 -21 65 1 22 24 21 45 -1
65 -23 21 -46 22 -66 1z"/>
<path d="M281 327 c-6 -8 -7 -18 -3 -22 4 -5 2 -5 -4 -2 -6 4 -34 -16 -61 -43
-28 -28 -48 -50 -44 -50 3 0 -1 -5 -9 -10 -13 -9 -11 -14 12 -34 14 -13 47
-32 72 -41 59 -23 73 -12 81 63 3 31 7 72 10 90 2 22 0 30 -7 26 -7 -5 -8 -2
-3 6 4 7 2 16 -6 21 -19 12 -25 11 -38 -4z m26 -14 c-4 -3 -10 -3 -14 0 -3 4
0 7 7 7 7 0 10 -3 7 -7z m-67 -67 c0 -3 -5 -8 -12 -12 -7 -4 -8 -3 -4 4 7 12
16 16 16 8z m-23 -52 c-3 -3 -12 -4 -19 -1 -8 3 -5 6 6 6 11 1 17 -2 13 -5z
m20 -21 c-4 -3 -7 0 -7 7 0 7 3 10 7 7 3 -4 3 -10 0 -14z"/>
<path d="M425 319 c-4 -5 4 -27 17 -47 13 -20 39 -60 58 -89 18 -29 37 -50 43
-46 6 3 7 1 3 -6 -4 -6 3 -25 15 -42 16 -24 24 -28 30 -17 6 9 8 5 7 -12 -2
-17 3 -25 15 -28 24 -5 137 107 137 136 0 16 -28 34 -142 91 -141 71 -171 81
-183 60z m43 -44 c-3 -3 -9 2 -12 12 -6 14 -5 15 5 6 7 -7 10 -15 7 -18z m29
-42 c-4 -3 -10 -3 -14 0 -3 4 0 7 7 7 7 0 10 -3 7 -7z m210 -70 c-4 -3 -10 -3
-14 0 -3 4 0 7 7 7 7 0 10 -3 7 -7z m-37 -77 c0 -2 -8 -10 -17 -17 -16 -13
-17 -12 -4 4 13 16 21 21 21 13z m-49 -29 c-10 -9 -11 -8 -5 6 3 10 9 15 12
12 3 -3 0 -11 -7 -18z"/>
</g>
</svg>
