<?xml version="1.0" standalone="no"?>
<!DOCTYPE svg PUBLIC "-//W3C//DTD SVG 20010904//EN"
 "http://www.w3.org/TR/2001/REC-SVG-20010904/DTD/svg10.dtd">
<svg version="1.0" xmlns="http://www.w3.org/2000/svg"
 width="1059.000000pt" height="395.000000pt" viewBox="0 0 1059.000000 395.000000"
 preserveAspectRatio="xMidYMid meet">

<g transform="translate(0.000000,395.000000) scale(0.100000,-0.100000)"
fill="#000000" stroke="none">
<path d="M1537 3133 c-4 -3 -7 -451 -7 -995 l0 -988 225 0 225 0 0 80 0 81 43
47 c111 120 167 219 167 293 0 25 -4 30 -21 27 -17 -2 -25 -15 -36 -58 -7 -30
-26 -73 -40 -95 -38 -58 -94 -125 -104 -125 -5 0 -9 16 -9 35 0 25 12 53 41
95 56 82 76 139 99 282 11 67 28 137 38 157 26 51 73 73 140 65 48 -6 52 -5
52 14 0 15 -10 24 -36 32 -75 25 -166 -16 -202 -92 -12 -24 -30 -99 -42 -168
-15 -91 -29 -143 -53 -190 l-32 -65 -3 59 c-2 38 4 82 17 125 30 102 31 131 1
131 -19 0 -20 7 -20 113 0 105 2 116 26 153 14 22 48 55 75 74 29 19 49 41 49
52 0 34 -36 22 -119 -40 l-31 -23 0 34 c0 29 6 39 43 63 130 88 249 104 394
53 51 -18 66 -20 76 -10 29 29 -81 77 -203 88 -79 6 -171 -15 -247 -58 -29
-16 -55 -29 -58 -29 -3 0 -5 13 -5 30 0 24 8 34 43 54 51 30 126 55 193 64 41
6 50 11 52 30 3 19 -1 22 -30 22 -48 0 -152 -27 -198 -50 -22 -11 -44 -20 -50
-20 -7 0 -10 108 -10 330 l0 330 -218 0 c-120 0 -222 -3 -225 -7z"/>
<path d="M5100 2505 l0 -315 -960 0 -961 0 3 -137 3 -138 208 -3 c114 -1 207
-5 207 -8 0 -3 -51 -81 -113 -172 -63 -92 -174 -257 -248 -367 l-134 -200 -3
513 -2 512 -115 0 -115 0 0 -527 0 -526 173 6 c94 4 682 7 1304 7 l1133 0 2
308 3 307 185 6 c162 5 195 9 262 31 128 42 242 137 297 246 51 101 69 282 41
403 -42 180 -171 301 -372 349 -75 18 -119 20 -440 20 l-358 0 0 -315z m617
-4 c110 -31 163 -98 163 -205 -1 -148 -88 -215 -283 -217 -50 -1 -98 -1 -104
0 -16 1 -19 427 -3 433 21 7 190 -1 227 -11z m-617 -746 l0 -335 -218 0 c-120
0 -221 3 -224 6 -5 5 431 664 439 664 2 0 3 -151 3 -335z m-971 228 c0 -31 4
-60 8 -64 5 -5 100 -10 211 -11 l203 -3 -188 -280 c-182 -270 -188 -278 -191
-242 l-3 37 -230 0 c-155 0 -229 3 -229 11 0 13 402 609 411 609 4 0 7 -25 8
-57z"/>
<path d="M2314 2537 c-9 -25 2 -34 63 -46 73 -14 176 -66 241 -120 28 -24 55
-40 61 -36 65 40 -152 186 -312 210 -38 6 -48 4 -53 -8z"/>
<path d="M2975 2535 c-5 -2 -27 -6 -48 -10 -45 -7 -81 -56 -91 -123 -13 -89
40 -145 144 -150 59 -3 68 -1 102 25 42 32 68 86 68 141 0 43 -20 76 -58 96
-28 14 -100 27 -117 21z"/>
<path d="M2534 2325 c-4 -10 17 -37 60 -78 66 -65 128 -171 142 -244 7 -40 30
-61 46 -45 16 16 -4 96 -44 181 -21 45 -52 87 -99 134 -69 67 -95 80 -105 52z"/>
<path d="M2176 2311 c-4 -5 -3 -16 0 -24 4 -11 26 -16 83 -18 101 -5 203 -53
284 -135 30 -31 60 -53 66 -49 54 33 -99 173 -237 215 -66 21 -186 27 -196 11z"/>
<path d="M6583 2205 c-182 -40 -340 -207 -383 -406 -20 -91 -8 -259 24 -344
51 -136 168 -257 294 -306 41 -16 86 -24 159 -27 130 -5 212 17 302 83 34 25
63 45 66 45 3 0 5 -22 5 -50 l0 -50 180 0 180 0 0 39 0 39 64 -34 c210 -112
552 -97 703 30 28 23 32 24 44 10 20 -25 121 -72 201 -94 54 -15 103 -20 189
-20 197 0 338 50 411 145 45 59 61 116 61 209 0 93 -29 162 -92 217 -48 43
-163 102 -221 114 -45 10 -121 42 -142 62 -26 23 -23 69 5 85 47 26 242 3 281
-33 26 -24 44 -5 96 102 63 128 65 123 -44 159 -124 40 -291 49 -416 21 -156
-35 -256 -127 -279 -257 -21 -117 14 -208 107 -281 45 -35 83 -55 253 -131 75
-33 93 -64 64 -108 -44 -67 -197 -42 -324 53 -36 28 -35 29 -69 -32 l-16 -30
-7 70 c-8 89 -39 154 -98 207 -49 44 -163 102 -221 113 -46 8 -141 56 -153 76
-16 27 0 68 31 76 52 15 155 5 230 -22 41 -15 75 -25 77 -23 11 12 105 210
105 222 0 17 -92 52 -185 69 -272 52 -511 -29 -585 -196 -29 -66 -29 -181 0
-243 39 -79 153 -159 307 -214 108 -39 140 -91 88 -140 -39 -37 -121 -34 -210
8 -38 18 -85 45 -103 59 -18 14 -34 23 -36 22 -1 -2 -27 -46 -57 -96 l-54 -93
-5 438 -5 437 -177 3 c-138 2 -178 0 -179 -10 -1 -7 -3 -24 -4 -38 -1 -14 -3
-29 -4 -33 0 -4 -16 3 -33 16 -113 85 -272 115 -425 82z m310 -306 c21 -6 57
-27 79 -47 141 -127 91 -366 -87 -417 -165 -49 -314 61 -314 230 0 172 151
282 322 234z"/>
<path d="M2178 2196 c-56 -20 -85 -42 -118 -87 -35 -49 -66 -147 -51 -162 19
-19 39 2 57 59 47 151 185 193 328 102 60 -39 128 -130 151 -201 21 -62 40
-86 56 -70 29 29 -41 186 -119 266 -78 80 -221 124 -304 93z"/>
<path d="M2624 2036 c-3 -8 3 -39 14 -68 41 -110 54 -196 50 -328 -3 -119 -2
-125 17 -125 16 0 21 9 27 45 11 76 8 212 -6 280 -33 155 -82 249 -102 196z"/>
<path d="M2392 2007 c-8 -9 -1 -27 24 -67 54 -86 76 -154 81 -255 8 -154 -35
-299 -124 -413 -40 -51 -42 -57 -27 -71 14 -15 20 -11 60 34 151 168 187 472
83 679 -30 59 -65 106 -80 106 -3 0 -11 -6 -17 -13z"/>
<path d="M2268 1962 c-34 -4 -84 -60 -97 -109 -13 -47 -14 -110 -2 -118 16 -9
41 25 41 56 0 43 25 95 55 115 25 16 27 16 53 -3 45 -34 84 -122 90 -205 5
-77 14 -100 38 -91 34 13 9 184 -39 266 -41 69 -83 96 -139 89z"/>
<path d="M2265 1820 c-14 -16 -19 -44 -25 -138 -6 -110 -9 -122 -44 -189 -20
-39 -68 -104 -107 -146 -38 -41 -69 -82 -69 -91 0 -35 41 -13 107 58 124 135
163 224 163 368 0 42 4 79 9 82 5 4 14 -17 20 -45 28 -130 -50 -333 -174 -454
-49 -47 -58 -75 -24 -75 25 0 102 78 154 156 92 138 125 338 74 442 -27 53
-55 64 -84 32z"/>
<path d="M2592 1777 c-9 -10 -9 -34 -3 -86 11 -82 0 -183 -28 -264 -12 -34
-16 -59 -10 -68 17 -28 44 6 67 87 20 67 23 97 20 196 -2 91 -7 121 -19 133
-13 14 -17 14 -27 2z"/>
<path d="M2402 1538 c-5 -7 -13 -24 -17 -38 -28 -94 -104 -229 -154 -274 -27
-24 -28 -56 -2 -56 24 0 85 68 134 151 43 73 83 189 74 213 -8 19 -21 21 -35
4z"/>
<path d="M8257 863 c-12 -12 -8 -281 4 -289 19 -11 29 18 29 88 0 71 11 88 59
88 29 0 41 -30 41 -104 0 -65 13 -92 32 -65 15 22 1 159 -19 181 -20 22 -76
24 -93 3 -18 -21 -25 -10 -21 30 4 55 -12 89 -32 68z"/>
<path d="M1007 724 c-31 -75 -54 -140 -51 -145 10 -16 20 -9 37 26 9 19 21 35
27 36 5 0 34 1 63 1 50 1 53 0 70 -36 17 -35 31 -45 41 -27 8 13 -106 281
-120 281 -6 0 -37 -61 -67 -136z m112 -36 c1 -5 -19 -8 -44 -8 -25 0 -45 4
-45 9 0 5 10 30 22 57 l21 49 23 -50 c13 -27 23 -53 23 -57z"/>
<path d="M8750 830 c0 -15 5 -20 18 -18 9 2 17 10 17 18 0 8 -8 16 -17 18 -13
2 -18 -3 -18 -18z"/>
<path d="M2027 823 c-4 -3 -7 -15 -7 -25 0 -10 -6 -18 -14 -18 -21 0 -31 -21
-15 -30 7 -5 17 -6 21 -4 4 3 8 -23 8 -58 0 -35 3 -73 6 -86 7 -26 48 -39 69
-22 18 15 10 30 -16 30 -17 0 -19 7 -19 64 0 60 2 64 25 70 14 4 25 13 25 21
0 9 -10 15 -25 15 -20 0 -25 5 -25 25 0 24 -18 34 -33 18z"/>
<path d="M4120 805 c0 -18 -5 -25 -20 -25 -12 0 -20 -7 -20 -16 0 -9 9 -18 20
-21 18 -5 20 -14 20 -78 0 -79 11 -99 52 -93 31 4 36 35 6 40 -21 3 -23 8 -23
66 0 34 2 61 5 60 3 -1 15 4 28 11 27 14 20 31 -14 31 -19 0 -24 5 -24 25 0
16 -6 25 -15 25 -9 0 -15 -9 -15 -25z"/>
<path d="M7847 823 c-4 -3 -7 -14 -7 -24 0 -9 -9 -19 -20 -22 -11 -3 -20 -10
-20 -15 0 -6 9 -14 20 -17 17 -5 20 -15 20 -63 0 -31 3 -67 6 -80 7 -26 48
-39 69 -22 18 15 10 30 -16 30 -18 0 -20 6 -17 68 2 44 7 67 16 68 6 1 17 2
22 3 23 3 9 31 -15 31 -20 0 -25 5 -25 25 0 24 -18 34 -33 18z"/>
<path d="M1507 774 c-4 -4 -7 -39 -7 -78 0 -85 15 -112 65 -122 53 -10 93 11
106 55 15 52 8 146 -11 146 -12 0 -16 -16 -18 -70 -4 -82 -13 -97 -61 -93
l-36 3 -5 79 c-5 73 -15 98 -33 80z"/>
<path d="M2453 762 c-74 -58 -41 -177 54 -188 103 -13 160 115 81 181 -36 30
-101 34 -135 7z m112 -37 c47 -46 20 -115 -44 -117 -62 -2 -95 78 -51 122 27
27 66 25 95 -5z"/>
<path d="M2944 767 c-3 -8 -4 -54 -2 -103 2 -71 6 -89 18 -89 12 0 16 16 18
75 3 80 14 100 59 100 31 0 43 -28 43 -104 0 -64 14 -92 31 -65 5 8 9 44 9 81
0 71 11 88 59 88 29 0 41 -30 41 -104 0 -64 14 -92 31 -65 20 32 3 174 -23
190 -24 15 -77 10 -97 -10 -19 -19 -20 -19 -37 0 -21 23 -76 25 -95 3 -11 -14
-13 -14 -21 0 -11 19 -27 21 -34 3z"/>
<path d="M3605 758 c-66 -58 -23 -188 61 -188 8 0 28 7 44 15 25 13 29 13 34
0 3 -8 10 -15 16 -15 6 0 10 40 10 105 0 84 -3 105 -14 105 -8 0 -16 -6 -19
-12 -4 -10 -7 -10 -18 0 -22 20 -85 15 -114 -10z m113 -28 c45 -42 17 -120
-43 -120 -44 0 -65 22 -65 70 0 64 62 92 108 50z"/>
<path d="M4539 751 c-67 -67 -18 -181 78 -181 33 0 73 25 73 46 0 16 -11 18
-25 5 -10 -9 -36 -14 -67 -12 -20 1 -58 35 -58 51 0 6 33 10 79 10 88 0 99 8
75 56 -21 41 -42 54 -87 54 -29 0 -45 -7 -68 -29z m109 -17 c32 -22 21 -30
-38 -28 -59 2 -72 10 -46 30 26 18 56 18 84 -2z"/>
<path d="M5419 751 c-67 -67 -18 -181 78 -181 33 0 73 25 73 46 0 16 -11 18
-25 5 -10 -9 -36 -14 -67 -12 -20 1 -58 35 -58 51 0 6 33 10 79 10 88 0 99 8
75 56 -21 41 -42 54 -87 54 -29 0 -45 -7 -68 -29z m109 -17 c32 -22 21 -30
-38 -28 -59 2 -72 10 -46 30 26 18 56 18 84 -2z"/>
<path d="M5886 772 c-9 -15 77 -202 94 -202 20 0 104 190 90 204 -14 14 -22 2
-55 -76 -15 -38 -31 -68 -34 -68 -3 0 -20 32 -36 72 -29 68 -47 90 -59 70z"/>
<path d="M6406 749 c-52 -62 -26 -156 49 -175 34 -8 85 6 99 28 14 23 3 32
-22 19 -36 -19 -89 -13 -106 11 -9 12 -16 26 -16 30 0 5 36 8 80 8 l80 0 0 27
c0 16 -11 39 -27 55 -21 22 -36 28 -69 28 -35 0 -47 -5 -68 -31z m105 -9 c37
-21 22 -36 -33 -34 -76 3 -75 3 -49 24 26 22 53 25 82 10z"/>
<path d="M6897 773 c-12 -11 -8 -191 4 -199 19 -11 29 18 29 82 0 69 17 94 64
94 18 0 26 5 24 13 -7 19 -48 20 -69 1 -17 -15 -19 -15 -25 0 -6 17 -16 20
-27 9z"/>
<path d="M7324 766 c-3 -9 -4 -48 -2 -87 3 -61 7 -74 28 -91 24 -19 53 -20 93
-3 13 5 17 2 17 -13 0 -32 -25 -45 -75 -40 -51 6 -68 -7 -39 -29 30 -23 103
-11 131 22 22 25 23 34 21 138 -2 92 -6 112 -18 112 -12 0 -16 -17 -20 -75 -4
-67 -7 -76 -30 -87 -20 -10 -29 -10 -45 1 -16 11 -21 28 -25 86 -5 71 -22 102
-36 66z"/>
<path d="M8754 767 c-10 -28 1 -190 14 -195 9 -3 12 22 12 102 0 66 -4 106
-10 106 -6 0 -13 -6 -16 -13z"/>
<path d="M9114 767 c-3 -8 -4 -54 -2 -103 2 -71 6 -89 18 -89 12 0 16 18 20
78 5 81 14 97 56 97 34 0 44 -20 44 -89 0 -69 10 -98 29 -87 18 11 14 157 -5
184 -18 27 -84 31 -105 6 -11 -14 -13 -14 -21 0 -11 19 -27 21 -34 3z"/>
<path d="M9643 765 c-27 -19 -46 -77 -38 -115 8 -37 58 -80 94 -80 14 0 37 7
49 16 21 14 22 14 22 -9 0 -43 -39 -59 -107 -43 -44 10 -46 -16 -3 -34 43 -18
100 -6 128 25 20 24 22 36 22 141 0 93 -3 114 -14 114 -8 0 -18 -5 -21 -10 -4
-7 -12 -7 -25 0 -28 15 -82 12 -107 -5z m112 -40 c28 -27 31 -45 14 -78 -16
-29 -28 -37 -63 -37 -40 0 -66 26 -66 67 0 67 68 96 115 48z"/>
</g>
</svg>
