<svg width="27" height="23" viewBox="0 0 27 23" fill="none" xmlns="http://www.w3.org/2000/svg">
<path d="M17.9375 22.5L12.625 17.1875L14.375 15.4375L17.9375 19L25 11.9375L26.75 13.6875L17.9375 22.5ZM13 8.75L23 2.5H3L13 8.75ZM13 11.25L3 5V17.5H9.4375L11.9375 20H3C2.3125 20 1.72417 19.7554 1.235 19.2663C0.745 18.7763 0.5 18.1875 0.5 17.5V2.5C0.5 1.8125 0.745 1.22417 1.235 0.735C1.72417 0.245 2.3125 0 3 0H23C23.6875 0 24.2763 0.245 24.7663 0.735C25.2554 1.22417 25.5 1.8125 25.5 2.5V7.9375L23 10.4375V5L13 11.25Z" fill="#2A3547"/>
</svg>
