<svg width="30" height="30" viewBox="0 0 30 30" fill="none" xmlns="http://www.w3.org/2000/svg">
<path d="M18.6875 20L13.375 14.6875L15.125 12.9375L18.6875 16.5L25.75 9.4375L27.5 11.1875L18.6875 20ZM7.5 28.75C6.8125 28.75 6.22417 28.5054 5.735 28.0163C5.245 27.5263 5 26.9375 5 26.25V3.75C5 3.0625 5.245 2.47375 5.735 1.98375C6.22417 1.49458 6.8125 1.25 7.5 1.25H20C20.6875 1.25 21.2763 1.49458 21.7663 1.98375C22.2554 2.47375 22.5 3.0625 22.5 3.75V8.75H20V7.5H7.5V22.5H20V21.25H22.5V26.25C22.5 26.9375 22.2554 27.5263 21.7663 28.0163C21.2763 28.5054 20.6875 28.75 20 28.75H7.5ZM7.5 25V26.25H20V25H7.5ZM7.5 5H20V3.75H7.5V5Z" fill="#2A3547"/>
</svg>
